<svg xmlns="http://www.w3.org/2000/svg" xmlns:xlink="http://www.w3.org/1999/xlink" viewBox="0 0 156 300">
  <path class="svg-fb" d="M101.000,300.000 C101.000,300.000 101.000,163.000 101.000,163.000 C101.000,163.000 147.000,163.000 147.000,163.000 C147.000,163.000 154.000,110.000 154.000,110.000 C154.000,110.000 101.000,110.000 101.000,110.000 C101.000,110.000 101.000,76.000 101.000,76.000 C101.000,60.552 105.857,50.000 128.000,50.000 C128.000,50.000 156.000,50.000 156.000,50.000 C156.000,50.000 156.000,2.000 156.000,2.000 C151.113,1.351 134.503,-0.000 115.000,-0.000 C74.282,-0.000 46.000,25.336 46.000,71.000 C46.000,71.000 46.000,110.000 46.000,110.000 C46.000,110.000 0.000,110.000 0.000,110.000 C0.000,110.000 0.000,163.000 0.000,163.000 C0.000,163.000 46.000,163.000 46.000,163.000 C46.000,163.000 46.000,300.000 46.000,300.000 C46.000,300.000 101.000,300.000 101.000,300.000 Z"/>
</svg>
